# xmcd CD database file
#
# Track frame offsets:
#	150
#	14979
#	29725
#	41377
#	56156
#	69005
#	84213
#	96747
#	108736
#	120971
#	134452
#	146481
#
# Disc length: 2312 seconds
#
# Revision: 0
# Processed by: cddbd v1.5.1PL0 Copyright (c) Steve Scherf et al.
# Submitted via: CDex 1.50beta10
#
DISCID=ab09060c
DTITLE=Lionel Hampton - The Vibes President
DYEAR=2002
DGENRE=Jazz
TTITLE0=Flying home
TTITLE1=On the sunny side of the street
TTITLE2=Don't be that way
TTITLE3=Denison swing
TTITLE4=Jack the bellboy
TTITLE5=Hamp's boogie woogie
TTITLE6=Sad feling
TTITLE7=Turkey hop 1
TTITLE8=Turkey hop 2
TTITLE9=Moonglow
TTITLE10=Jivin with jarvis
TTITLE11=Air mail special 1 et 2
EXTD=YEAR: 2002
EXTT0=
EXTT1=
EXTT2=
EXTT3=
EXTT4=
EXTT5=
EXTT6=
EXTT7=
EXTT8=
EXTT9=
EXTT10=
EXTT11=
PLAYORDER=
